<?xml version="1.0" ?><!DOCTYPE svg  PUBLIC '-//W3C//DTD SVG 1.1//EN'  'http://www.w3.org/Graphics/SVG/1.1/DTD/svg11.dtd'><svg aria-labelledby="simpleicons-javascript-icon" enable-background="new 0 0 24 24" height="3.33333in" role="img" style="shape-rendering:geometricPrecision; text-rendering:geometricPrecision; image-rendering:optimizeQuality; fill-rule:evenodd; clip-rule:evenodd" version="1.1" viewBox="0 0 3333 3333" width="3.33333in" xml:space="preserve" xmlns="http://www.w3.org/2000/svg" xmlns:xlink="http://www.w3.org/1999/xlink"><defs><style type="text/css">
   <![CDATA[
    .fil0 {fill:black}
    .fil1 {fill:white}
   ]]>
  </style></defs><g id="Layer_x0020_1"><circle class="fil0" cx="1667" cy="1667" r="1667"/><g id="_823413328"><path class="fil1" d="M883 883l1567 0 0 1567 -1567 0 0 -1567zm1439 1193c-12,-71 -58,-131 -196,-187 -48,-23 -102,-38 -118,-75 -6,-21 -7,-33 -3,-46 10,-42 60,-54 99,-43 26,8 49,28 64,59 67,-44 67,-44 114,-73 -17,-28 -26,-40 -38,-51 -41,-46 -96,-70 -185,-68l-46 6c-44,11 -86,34 -111,66 -75,84 -53,231 37,291 89,67 219,82 236,144 15,77 -57,101 -129,92 -52,-11 -82,-38 -114,-87l-120 69c14,31 30,45 53,72 114,115 398,109 449,-65 2,-6 15,-46 5,-108l3 4 0 0zm-587 -473l-146 0c0,127 -1,253 -1,379 0,81 4,155 -9,177 -22,45 -77,40 -102,32 -26,-13 -39,-31 -54,-56 -5,-7 -8,-13 -9,-13l-119 73c20,42 49,77 87,100 55,33 130,44 209,26 51,-15 95,-45 118,-92 33,-61 26,-135 26,-219 1,-134 0,-268 0,-403l0 -4 0 0z"/></g></g></svg>